PathFileType	4	(X/Y/Z)	C:\Users\Graham\Documents\MATLAB\MOtoNMS_v2_2\MyData\ElaboratedData\S7\22-05-17\staticElaborations\Static1\Static\\Static1.trc
DataRate	CameraRate	NumFrames	NumMarkers	Units	OrigDataRate	DataStartFrame
100	100	4	38	mm	100	2
Frame#	Time	V_Sacral			R_ASIS			L_ASIS			R_Knee_Lat			R_Knee_Med			R_Thigh_Upper			R_Thigh_Front			R_Thigh_Rear			L_Knee_Lat			L_Knee_Med			L_Thigh_Upper			L_Thigh_Front			L_Thigh_Rear			R_Ankle_Lat			R_Ankle_Med			R_Shank_Upper			R_Shank_Front			R_Shank_Rear			L_Ankle_Lat			L_Ankle_Med			L_Shank_Upper			L_Shank_Front			L_Shank_Rear			R_Heel			R_MTP1			R_MTP5			L_Heel			L_MTP1			L_MTP5			Clavicle			R_Acromium			L_Acromium			LAJC			RAJC			LHJC			RHJC			LKJC			RKJC		
		X1	Y1	Z1	X2	Y2	Z2	X3	Y3	Z3	X4	Y4	Z4	X5	Y5	Z5	X6	Y6	Z6	X7	Y7	Z7	X8	Y8	Z8	X9	Y9	Z9	X10	Y10	Z10	X11	Y11	Z11	X12	Y12	Z12	X13	Y13	Z13	X14	Y14	Z14	X15	Y15	Z15	X16	Y16	Z16	X17	Y17	Z17	X18	Y18	Z18	X19	Y19	Z19	X20	Y20	Z20	X21	Y21	Z21	X22	Y22	Z22	X23	Y23	Z23	X24	Y24	Z24	X25	Y25	Z25	X26	Y26	Z26	X27	Y27	Z27	X28	Y28	Z28	X29	Y29	Z29	X30	Y30	Z30	X31	Y31	Z31	X32	Y32	Z32	X33	Y33	Z33	X34	Y34	Z34	X35	Y35	Z35	X36	Y36	Z36	X37	Y37	Z37	X38	Y38	Z38	

189	1.880000	-345.404027	1052.751556	6.857659	-151.323850	1019.106836	147.855143	-176.905282	1016.006477	-124.074829	-211.643957	518.467815	172.923929	-211.444502	513.468386	60.536507	-133.191544	803.261206	108.543936	-159.155907	688.335546	74.028436	-137.901221	688.234107	150.209520	-228.765730	514.385192	-131.895931	-225.799800	509.565174	-14.796536	-144.687184	807.574526	-74.705394	-162.428685	692.959087	-28.589568	-144.612195	683.298143	-98.297156	-309.887715	81.812460	165.653971	-259.816400	82.238010	90.355517	-184.971284	348.546030	148.730258	-221.098512	243.041324	105.847114	-235.855769	242.182477	180.730459	-296.817600	72.110208	-106.663279	-256.175464	89.238832	-27.789576	-197.850422	332.155554	-104.027532	-222.371387	221.373550	-57.785909	-236.270478	221.833352	-128.077719	-353.235373	36.004508	102.887812	-140.105149	55.498781	168.661591	-164.784433	47.225087	227.812394	-344.269108	31.300891	-44.961850	-121.628343	52.115592	-93.274763	-156.495733	47.745681	-159.518628	-141.273646	1403.960589	4.343705	-233.466264	1471.755949	196.165859	-239.126309	1474.799152	-192.855878	-276.496532	80.674520	-67.226428	-284.852057	82.025235	128.004744	-243.993095	935.837313	-77.539090	-225.742001	938.049267	116.469577	-227.282765	511.975183	-73.346233	-211.544230	515.968100	116.730218	
190	1.890000	-345.505337	1052.770306	7.027521	-151.317492	1019.120087	147.872090	-177.104091	1016.027213	-124.052811	-211.720847	518.496094	172.965697	-211.546932	513.498721	60.581528	-133.213627	803.277878	108.549041	-159.301492	688.345777	74.034141	-137.953609	688.252287	150.196924	-228.628132	514.418174	-131.826307	-225.483229	509.583621	-14.698815	-144.945702	807.756577	-74.601236	-162.484714	693.113772	-28.537986	-144.513670	683.495582	-98.210338	-309.886866	81.827687	165.653098	-259.810339	82.244728	90.362895	-185.021660	348.589769	148.748136	-221.117561	243.075781	105.874163	-235.872843	242.206464	180.755043	-296.948036	72.096800	-106.603937	-256.396742	89.308121	-27.727417	-197.822460	332.107767	-103.994581	-222.438713	221.364074	-57.708551	-236.433069	221.822251	-127.926807	-353.298685	36.062578	102.877741	-140.077071	55.476039	168.668554	-164.766116	47.201946	227.820293	-344.402092	31.120154	-44.930433	-121.807100	52.538147	-93.112657	-156.745673	48.429575	-159.406163	-141.436341	1403.978010	4.386080	-233.529598	1471.744277	196.283182	-239.435635	1474.796729	-192.755476	-276.672389	80.702460	-67.165677	-284.848603	82.036208	128.007996	-244.158298	935.853021	-77.466468	-225.760899	938.059626	116.537828	-227.055680	512.000897	-73.262561	-211.633890	515.997408	116.773613	
191	1.900000	-345.573110	1052.767522	7.171807	-151.298671	1019.129156	147.878828	-177.257218	1016.032878	-124.049436	-211.790007	518.519744	173.010438	-211.635345	513.523393	60.628405	-133.258678	803.272564	108.551315	-159.414483	688.349013	74.049759	-137.995392	688.262976	150.197600	-228.483616	514.435403	-131.813419	-225.075074	509.572765	-14.673075	-145.114223	807.912085	-74.537890	-162.462563	693.226226	-28.542199	-144.380996	683.664057	-98.190479	-309.887448	81.840622	165.653145	-259.803589	82.251128	90.371616	-185.065516	348.626036	148.775252	-221.133157	243.106303	105.903373	-235.889786	242.226823	180.781074	-297.075837	72.067084	-106.570422	-256.585919	89.374281	-27.717848	-197.789612	332.050915	-104.056948	-222.456285	221.339429	-57.716374	-236.593242	221.801886	-127.869409	-353.344543	36.118969	102.873781	-140.051965	55.454657	168.677109	-164.749657	47.179561	227.830285	-344.513612	30.975568	-44.918817	-121.973022	52.997189	-92.977543	-157.005514	49.025439	-159.318985	-141.579684	1403.980324	4.422926	-233.572034	1471.716492	196.396611	-239.725130	1474.781148	-192.662470	-276.830878	80.720682	-67.144135	-284.845518	82.045875	128.012380	-244.277449	935.849287	-77.417210	-225.757473	938.058309	116.588438	-226.779345	512.004084	-73.243247	-211.712676	516.021568	116.819422	
192	1.910000	-345.604239	1052.743749	7.286595	-151.264959	1019.135154	147.875597	-177.360313	1016.023603	-124.063442	-211.851247	518.538934	173.058577	-211.708847	513.542432	60.676932	-133.326704	803.244361	108.552612	-159.483885	688.347730	74.077623	-138.025465	688.265303	150.214715	-228.353443	514.438317	-131.857028	-224.608602	509.533213	-14.718973	-145.173625	808.032600	-74.518837	-162.365983	693.289536	-28.603741	-144.228203	683.792838	-98.241187	-309.889561	81.850957	165.654596	-259.795943	82.257412	90.382086	-185.102862	348.654417	148.813723	-221.145144	243.132733	105.935540	-235.907007	242.243501	180.809190	-297.194454	72.021745	-106.566575	-256.734692	89.435407	-27.762216	-197.759375	331.988310	-104.209661	-222.429569	221.301521	-57.808091	-236.748412	221.774910	-127.910337	-353.372518	36.171944	102.875810	-140.030558	55.435149	168.687829	-164.735516	47.158073	227.842901	-344.601202	30.870834	-44.927252	-122.120748	53.472918	-92.871350	-157.265569	49.508445	-159.259927	-141.703051	1403.969015	4.453393	-233.596476	1471.674207	196.503077	-239.990331	1474.754615	-192.579315	-276.964573	80.728576	-67.164395	-284.842752	82.054184	128.018341	-244.346540	935.826792	-77.390424	-225.729082	938.046695	116.621639	-226.481023	511.985765	-73.288001	-211.780047	516.040683	116.867754	
